<svg xmlns="http://www.w3.org/2000/svg" xmlns:xlink="http://www.w3.org/1999/xlink" width="480" zoomAndPan="magnify" viewBox="0 0 360 359.999987" height="480" preserveAspectRatio="xMidYMid meet" version="1.0"><defs><g/><clipPath id="42e21a1539"><path d="M 22 194.832031 L 338 194.832031 L 338 203.832031 L 22 203.832031 Z M 22 194.832031 " clip-rule="nonzero"/></clipPath><clipPath id="141897df0a"><path d="M 84 213.175781 L 276.332031 213.175781 L 276.332031 252.484375 L 84 252.484375 Z M 84 213.175781 " clip-rule="nonzero"/></clipPath></defs><g clip-path="url(#42e21a1539)"><path fill="#000000" d="M 22.007812 199.234375 C 22.007812 196.789062 177.441406 194.832031 179.941406 194.832031 C 182.441406 194.832031 337.789062 196.789062 337.789062 199.234375 C 337.789062 201.679688 182.460938 203.636719 179.941406 203.636719 C 177.421875 203.636719 22.007812 201.664062 22.007812 199.234375 Z M 22.007812 199.234375 " fill-opacity="1" fill-rule="nonzero"/></g><g clip-path="url(#141897df0a)"><path fill="#0cc0df" d="M 87.730469 220.441406 C 83.0625 225.082031 83.535156 237.390625 86.398438 243.601562 C 88.527344 248.21875 94.238281 249.511719 98.632812 250.394531 C 114.222656 253.527344 130.261719 253.269531 146.066406 253.035156 C 170.128906 252.679688 194.179688 251.867188 218.242188 251.554688 C 229.515625 251.40625 240.789062 251.570312 252.0625 251.648438 C 256.78125 251.683594 261.757812 252.40625 266.347656 250.820312 C 274.253906 248.082031 275.957031 238.328125 276.609375 231.089844 C 276.90625 227.800781 277.640625 223.253906 274.507812 220.851562 C 269.679688 217.160156 263.113281 217.167969 257.425781 216.628906 C 239.386719 214.917969 239.480469 214.8125 221.28125 214.28125 C 207.082031 213.863281 185.054688 213.4375 170.847656 213.769531 C 161.453125 213.992188 152.066406 214.546875 142.679688 214.996094 C 133.304688 215.445312 124.894531 214.347656 115.511719 214.664062 C 106.050781 214.980469 92.582031 215.617188 87.730469 220.441406 Z M 87.730469 220.441406 " fill-opacity="1" fill-rule="evenodd"/></g><g fill="#091f31" fill-opacity="1"><g transform="translate(57.85088, 163.987329)"><g><path d="M 35.75 -42.640625 C 36.644531 -42.640625 37.375 -42.363281 37.9375 -41.8125 C 38.507812 -41.257812 38.796875 -40.554688 38.796875 -39.703125 L 38.796875 -2.984375 C 38.753906 -2.128906 38.445312 -1.414062 37.875 -0.84375 C 37.3125 -0.28125 36.582031 0 35.6875 0 C 34.875 0 34.171875 -0.28125 33.578125 -0.84375 C 32.992188 -1.414062 32.703125 -2.128906 32.703125 -2.984375 L 32.703125 -18.765625 L 11.078125 -18.765625 L 11.078125 -2.984375 C 11.078125 -2.128906 10.769531 -1.414062 10.15625 -0.84375 C 9.550781 -0.28125 8.847656 0 8.046875 0 C 7.148438 0 6.425781 -0.28125 5.875 -0.84375 C 5.332031 -1.414062 5.0625 -2.128906 5.0625 -2.984375 L 5.0625 -39.703125 C 5.0625 -40.515625 5.34375 -41.207031 5.90625 -41.78125 C 6.476562 -42.351562 7.207031 -42.640625 8.09375 -42.640625 C 8.90625 -42.640625 9.601562 -42.351562 10.1875 -41.78125 C 10.78125 -41.207031 11.078125 -40.515625 11.078125 -39.703125 L 11.078125 -24.359375 L 32.703125 -24.359375 L 32.703125 -39.703125 C 32.703125 -40.515625 33.003906 -41.207031 33.609375 -41.78125 C 34.222656 -42.351562 34.9375 -42.640625 35.75 -42.640625 Z M 35.75 -42.640625 "/></g></g></g><g fill="#091f31" fill-opacity="1"><g transform="translate(101.632787, 163.987329)"><g><path d="M 6.390625 -0.0625 C 5.421875 -0.0625 4.679688 -0.320312 4.171875 -0.84375 C 3.660156 -1.375 3.40625 -2.148438 3.40625 -3.171875 L 3.40625 -4.328125 C 3.40625 -5.296875 3.660156 -6.046875 4.171875 -6.578125 C 4.679688 -7.109375 5.421875 -7.375 6.390625 -7.375 L 7 -7.375 C 8.019531 -7.375 8.78125 -7.109375 9.28125 -6.578125 C 9.789062 -6.046875 10.046875 -5.296875 10.046875 -4.328125 L 10.046875 -3.171875 C 10.046875 -1.097656 9.03125 -0.0625 7 -0.0625 Z M 6.390625 -0.0625 "/></g></g></g><g fill="#091f31" fill-opacity="1"><g transform="translate(115.090093, 163.987329)"><g><path d="M 43.796875 -21.3125 C 43.796875 -17.21875 42.910156 -13.503906 41.140625 -10.171875 C 39.378906 -6.835938 36.929688 -4.207031 33.796875 -2.28125 C 30.671875 -0.351562 27.140625 0.609375 23.203125 0.609375 C 19.265625 0.609375 15.734375 -0.351562 12.609375 -2.28125 C 9.484375 -4.207031 7.035156 -6.835938 5.265625 -10.171875 C 3.503906 -13.503906 2.625 -17.21875 2.625 -21.3125 C 2.625 -25.414062 3.503906 -29.128906 5.265625 -32.453125 C 7.035156 -35.785156 9.484375 -38.414062 12.609375 -40.34375 C 15.734375 -42.28125 19.265625 -43.25 23.203125 -43.25 C 27.140625 -43.25 30.671875 -42.28125 33.796875 -40.34375 C 36.929688 -38.414062 39.378906 -35.785156 41.140625 -32.453125 C 42.910156 -29.128906 43.796875 -25.414062 43.796875 -21.3125 Z M 37.515625 -21.3125 C 37.515625 -24.363281 36.90625 -27.113281 35.6875 -29.5625 C 34.46875 -32.019531 32.769531 -33.945312 30.59375 -35.34375 C 28.425781 -36.75 25.960938 -37.453125 23.203125 -37.453125 C 20.441406 -37.453125 17.972656 -36.757812 15.796875 -35.375 C 13.628906 -34 11.9375 -32.082031 10.71875 -29.625 C 9.5 -27.175781 8.890625 -24.40625 8.890625 -21.3125 C 8.890625 -18.269531 9.5 -15.519531 10.71875 -13.0625 C 11.9375 -10.601562 13.628906 -8.671875 15.796875 -7.265625 C 17.972656 -5.867188 20.441406 -5.171875 23.203125 -5.171875 C 25.960938 -5.171875 28.425781 -5.867188 30.59375 -7.265625 C 32.769531 -8.671875 34.46875 -10.601562 35.6875 -13.0625 C 36.90625 -15.519531 37.515625 -18.269531 37.515625 -21.3125 Z M 37.515625 -21.3125 "/></g></g></g><g fill="#091f31" fill-opacity="1"><g transform="translate(161.490391, 163.987329)"><g><path d="M 6.390625 -0.0625 C 5.421875 -0.0625 4.679688 -0.320312 4.171875 -0.84375 C 3.660156 -1.375 3.40625 -2.148438 3.40625 -3.171875 L 3.40625 -4.328125 C 3.40625 -5.296875 3.660156 -6.046875 4.171875 -6.578125 C 4.679688 -7.109375 5.421875 -7.375 6.390625 -7.375 L 7 -7.375 C 8.019531 -7.375 8.78125 -7.109375 9.28125 -6.578125 C 9.789062 -6.046875 10.046875 -5.296875 10.046875 -4.328125 L 10.046875 -3.171875 C 10.046875 -1.097656 9.03125 -0.0625 7 -0.0625 Z M 6.390625 -0.0625 "/></g></g></g><g fill="#091f31" fill-opacity="1"><g transform="translate(174.947697, 163.987329)"><g><path d="M 22.109375 -42.640625 C 24.265625 -42.640625 26.253906 -42.054688 28.078125 -40.890625 C 29.898438 -39.734375 31.347656 -38.160156 32.421875 -36.171875 C 33.503906 -34.179688 34.046875 -31.988281 34.046875 -29.59375 C 34.046875 -27.195312 33.503906 -24.984375 32.421875 -22.953125 C 31.347656 -20.929688 29.898438 -19.332031 28.078125 -18.15625 C 26.253906 -16.976562 24.265625 -16.390625 22.109375 -16.390625 L 10.65625 -16.390625 L 10.65625 -2.921875 C 10.65625 -2.109375 10.390625 -1.414062 9.859375 -0.84375 C 9.335938 -0.28125 8.671875 0 7.859375 0 C 7.003906 0 6.320312 -0.269531 5.8125 -0.8125 C 5.3125 -1.363281 5.0625 -2.066406 5.0625 -2.921875 L 5.0625 -39.703125 C 5.0625 -40.515625 5.34375 -41.207031 5.90625 -41.78125 C 6.476562 -42.351562 7.171875 -42.640625 7.984375 -42.640625 Z M 22.109375 -21.921875 C 23.203125 -21.921875 24.21875 -22.273438 25.15625 -22.984375 C 26.09375 -23.703125 26.832031 -24.648438 27.375 -25.828125 C 27.925781 -27.003906 28.203125 -28.257812 28.203125 -29.59375 C 28.203125 -31.664062 27.601562 -33.421875 26.40625 -34.859375 C 25.207031 -36.304688 23.773438 -37.03125 22.109375 -37.03125 L 10.65625 -37.03125 L 10.65625 -21.921875 Z M 22.109375 -21.921875 "/></g></g></g><g fill="#091f31" fill-opacity="1"><g transform="translate(211.48335, 163.987329)"><g><path d="M 6.390625 -0.0625 C 5.421875 -0.0625 4.679688 -0.320312 4.171875 -0.84375 C 3.660156 -1.375 3.40625 -2.148438 3.40625 -3.171875 L 3.40625 -4.328125 C 3.40625 -5.296875 3.660156 -6.046875 4.171875 -6.578125 C 4.679688 -7.109375 5.421875 -7.375 6.390625 -7.375 L 7 -7.375 C 8.019531 -7.375 8.78125 -7.109375 9.28125 -6.578125 C 9.789062 -6.046875 10.046875 -5.296875 10.046875 -4.328125 L 10.046875 -3.171875 C 10.046875 -1.097656 9.03125 -0.0625 7 -0.0625 Z M 6.390625 -0.0625 "/></g></g></g><g fill="#091f31" fill-opacity="1"><g transform="translate(224.940656, 163.987329)"><g><path d="M 29.171875 -5.609375 C 30.023438 -5.609375 30.722656 -5.320312 31.265625 -4.75 C 31.816406 -4.175781 32.09375 -3.503906 32.09375 -2.734375 C 32.09375 -1.921875 31.816406 -1.257812 31.265625 -0.75 C 30.722656 -0.25 30.023438 0 29.171875 0 L 7.984375 0 C 7.171875 0 6.476562 -0.28125 5.90625 -0.84375 C 5.34375 -1.414062 5.0625 -2.109375 5.0625 -2.921875 L 5.0625 -39.703125 C 5.0625 -40.515625 5.34375 -41.207031 5.90625 -41.78125 C 6.476562 -42.351562 7.171875 -42.640625 7.984375 -42.640625 L 29.171875 -42.640625 C 30.023438 -42.640625 30.722656 -42.375 31.265625 -41.84375 C 31.816406 -41.3125 32.09375 -40.617188 32.09375 -39.765625 C 32.09375 -38.953125 31.816406 -38.289062 31.265625 -37.78125 C 30.722656 -37.28125 30.023438 -37.03125 29.171875 -37.03125 L 11.078125 -37.03125 L 11.078125 -24.609375 L 26.4375 -24.609375 C 27.289062 -24.609375 27.988281 -24.34375 28.53125 -23.8125 C 29.082031 -23.28125 29.359375 -22.609375 29.359375 -21.796875 C 29.359375 -20.953125 29.082031 -20.285156 28.53125 -19.796875 C 27.988281 -19.304688 27.289062 -19.0625 26.4375 -19.0625 L 11.078125 -19.0625 L 11.078125 -5.609375 Z M 29.171875 -5.609375 "/></g></g></g><g fill="#091f31" fill-opacity="1"><g transform="translate(259.649543, 163.987329)"><g><path d="M 6.390625 -0.0625 C 5.421875 -0.0625 4.679688 -0.320312 4.171875 -0.84375 C 3.660156 -1.375 3.40625 -2.148438 3.40625 -3.171875 L 3.40625 -4.328125 C 3.40625 -5.296875 3.660156 -6.046875 4.171875 -6.578125 C 4.679688 -7.109375 5.421875 -7.375 6.390625 -7.375 L 7 -7.375 C 8.019531 -7.375 8.78125 -7.109375 9.28125 -6.578125 C 9.789062 -6.046875 10.046875 -5.296875 10.046875 -4.328125 L 10.046875 -3.171875 C 10.046875 -1.097656 9.03125 -0.0625 7 -0.0625 Z M 6.390625 -0.0625 "/></g></g></g><g fill="#091f31" fill-opacity="1"><g transform="translate(273.106849, 163.987329)"><g><path d="M 2.5 -5 C 2.132812 -5.5625 1.953125 -6.109375 1.953125 -6.640625 C 1.953125 -7.453125 2.378906 -8.140625 3.234375 -8.703125 C 3.640625 -8.992188 4.101562 -9.140625 4.625 -9.140625 C 5.351562 -9.140625 6.023438 -8.832031 6.640625 -8.21875 C 7.859375 -6.84375 9.164062 -5.804688 10.5625 -5.109375 C 11.96875 -4.421875 13.644531 -4.078125 15.59375 -4.078125 C 17.132812 -4.117188 18.492188 -4.472656 19.671875 -5.140625 C 20.847656 -5.816406 21.4375 -6.90625 21.4375 -8.40625 C 21.4375 -9.78125 20.835938 -10.832031 19.640625 -11.5625 C 18.441406 -12.300781 16.6875 -12.972656 14.375 -13.578125 C 12.101562 -14.191406 10.210938 -14.832031 8.703125 -15.5 C 7.203125 -16.164062 5.929688 -17.140625 4.890625 -18.421875 C 3.859375 -19.703125 3.34375 -21.378906 3.34375 -23.453125 C 3.34375 -25.273438 3.859375 -26.875 4.890625 -28.25 C 5.929688 -29.632812 7.316406 -30.710938 9.046875 -31.484375 C 10.773438 -32.253906 12.648438 -32.640625 14.671875 -32.640625 C 16.628906 -32.640625 18.570312 -32.273438 20.5 -31.546875 C 22.425781 -30.816406 24 -29.703125 25.21875 -28.203125 C 25.707031 -27.628906 25.953125 -27.039062 25.953125 -26.4375 C 25.953125 -25.78125 25.625 -25.148438 24.96875 -24.546875 C 24.5625 -24.179688 24.054688 -24 23.453125 -24 C 22.722656 -24 22.132812 -24.242188 21.6875 -24.734375 C 20.832031 -25.703125 19.785156 -26.445312 18.546875 -26.96875 C 17.304688 -27.5 15.9375 -27.765625 14.4375 -27.765625 C 12.894531 -27.765625 11.582031 -27.453125 10.5 -26.828125 C 9.425781 -26.203125 8.890625 -25.132812 8.890625 -23.625 C 8.929688 -22.207031 9.550781 -21.148438 10.75 -20.453125 C 11.945312 -19.765625 13.785156 -19.097656 16.265625 -18.453125 C 18.410156 -17.890625 20.191406 -17.28125 21.609375 -16.625 C 23.035156 -15.976562 24.234375 -15.015625 25.203125 -13.734375 C 26.179688 -12.453125 26.671875 -10.773438 26.671875 -8.703125 C 26.671875 -6.796875 26.125 -5.140625 25.03125 -3.734375 C 23.9375 -2.335938 22.503906 -1.265625 20.734375 -0.515625 C 18.972656 0.234375 17.097656 0.609375 15.109375 0.609375 C 12.546875 0.609375 10.175781 0.160156 8 -0.734375 C 5.832031 -1.628906 4 -3.050781 2.5 -5 Z M 2.5 -5 "/></g></g></g><path stroke-linecap="round" transform="matrix(0.75, 0, 0, 0.75, 72.00849, 139.71021)" fill="none" stroke-linejoin="miter" d="M 3.499097 3.500971 L 62.697019 3.500971 " stroke="#091f31" stroke-width="7" stroke-opacity="1" stroke-miterlimit="4"/><path stroke-linecap="round" transform="matrix(0.75, 0, 0, 0.75, 154.087977, 142.33521)" fill="none" stroke-linejoin="miter" d="M 3.502489 3.500971 L 48.460826 3.500971 " stroke="#091f31" stroke-width="7" stroke-opacity="1" stroke-miterlimit="4"/><path stroke-linecap="round" transform="matrix(0.75, 0, 0, 0.75, 201.908472, 139.71021)" fill="none" stroke-linejoin="miter" d="M 3.502245 3.500971 L 39.398082 3.500971 " stroke="#091f31" stroke-width="7" stroke-opacity="1" stroke-miterlimit="4"/><g fill="#000000" fill-opacity="1"><g transform="translate(145.430297, 242.631986)"><g><path d="M 18.75 -8.375 C 18.90625 -6.507812 18.363281 -4.847656 17.125 -3.390625 C 16.613281 -2.765625 16.109375 -2.320312 15.609375 -2.0625 C 11.691406 0.0820312 7.960938 0.550781 4.421875 -0.65625 C 3.691406 -0.90625 2.957031 -1.347656 2.21875 -1.984375 C 1.5625 -2.515625 1.363281 -3.257812 1.625 -4.21875 C 1.78125 -4.851562 1.867188 -5.515625 1.890625 -6.203125 C 1.910156 -7.421875 1.929688 -8.632812 1.953125 -9.84375 C 1.972656 -11.050781 1.988281 -12.253906 2 -13.453125 C 2.019531 -14.421875 2.035156 -15.390625 2.046875 -16.359375 C 2.054688 -17.335938 2.070312 -18.3125 2.09375 -19.28125 L 2.09375 -19.390625 C 2.113281 -19.609375 2.097656 -19.835938 2.046875 -20.078125 C 2.003906 -20.328125 1.804688 -20.5625 1.453125 -20.78125 C 1.253906 -20.894531 1.132812 -21.0625 1.09375 -21.28125 C 1.070312 -21.539062 1.160156 -21.765625 1.359375 -21.953125 L 1.625 -22.21875 C 1.957031 -22.539062 2.304688 -22.863281 2.671875 -23.1875 C 3.035156 -23.507812 3.414062 -23.71875 3.8125 -23.8125 C 6.09375 -24.40625 8.304688 -24.742188 10.453125 -24.828125 C 10.566406 -24.847656 10.691406 -24.859375 10.828125 -24.859375 C 13.453125 -24.859375 15.3125 -23.695312 16.40625 -21.375 C 17.414062 -19.28125 17.113281 -17.390625 15.5 -15.703125 C 15.414062 -15.617188 15.320312 -15.535156 15.21875 -15.453125 C 15.125 -15.378906 15.019531 -15.304688 14.90625 -15.234375 C 14.84375 -15.191406 14.78125 -15.144531 14.71875 -15.09375 C 14.664062 -15.050781 14.609375 -15.007812 14.546875 -14.96875 L 14.203125 -14.703125 L 14.546875 -14.46875 C 14.671875 -14.363281 14.785156 -14.269531 14.890625 -14.1875 C 14.992188 -14.113281 15.097656 -14.039062 15.203125 -13.96875 C 15.398438 -13.800781 15.582031 -13.65625 15.75 -13.53125 C 15.914062 -13.40625 16.078125 -13.273438 16.234375 -13.140625 C 17.734375 -11.878906 18.570312 -10.289062 18.75 -8.375 Z M 6.28125 -16.375 L 6.28125 -16 L 6.671875 -16.09375 C 6.867188 -16.125 7.050781 -16.164062 7.21875 -16.21875 C 7.382812 -16.269531 7.554688 -16.316406 7.734375 -16.359375 C 8.128906 -16.429688 8.507812 -16.515625 8.875 -16.609375 C 9.25 -16.710938 9.613281 -16.832031 9.96875 -16.96875 C 10.539062 -17.1875 10.953125 -17.40625 11.203125 -17.625 C 11.460938 -17.84375 11.664062 -18.03125 11.8125 -18.1875 L 11.953125 -18.390625 C 12.066406 -18.609375 12.175781 -18.851562 12.28125 -19.125 C 12.394531 -19.40625 12.40625 -19.691406 12.3125 -19.984375 C 12.207031 -20.273438 11.976562 -20.507812 11.625 -20.6875 C 11.25 -20.863281 10.707031 -21.003906 10 -21.109375 C 9.664062 -21.128906 9.34375 -21.132812 9.03125 -21.125 C 8.71875 -21.113281 8.34375 -21.054688 7.90625 -20.953125 C 7.476562 -20.859375 6.925781 -20.691406 6.25 -20.453125 L 6.015625 -20.359375 L 6.015625 -20.125 C 6.035156 -19.695312 6.0625 -19.335938 6.09375 -19.046875 C 6.125 -18.765625 6.148438 -18.492188 6.171875 -18.234375 C 6.191406 -17.984375 6.207031 -17.71875 6.21875 -17.4375 C 6.238281 -17.164062 6.257812 -16.8125 6.28125 -16.375 Z M 14.234375 -7.734375 C 14.367188 -8.691406 14.003906 -9.578125 13.140625 -10.390625 C 12.585938 -10.921875 12 -11.285156 11.375 -11.484375 C 10.757812 -11.679688 10.132812 -11.78125 9.5 -11.78125 C 8.875 -11.78125 8.242188 -11.75 7.609375 -11.6875 L 7.03125 -11.65625 C 6.832031 -11.632812 6.671875 -11.503906 6.546875 -11.265625 C 6.429688 -11.035156 6.363281 -10.851562 6.34375 -10.71875 C 6.34375 -10.414062 6.34375 -10.113281 6.34375 -9.8125 C 6.34375 -9.507812 6.34375 -9.207031 6.34375 -8.90625 L 6.34375 -8.265625 L 6.375 -7.9375 C 6.375 -7.863281 6.375 -7.796875 6.375 -7.734375 C 6.375 -7.671875 6.375 -7.613281 6.375 -7.5625 C 6.375 -7.28125 6.375 -7.003906 6.375 -6.734375 C 6.375 -6.472656 6.363281 -6.207031 6.34375 -5.9375 C 6.300781 -5.164062 6.675781 -4.738281 7.46875 -4.65625 C 7.71875 -4.644531 7.960938 -4.640625 8.203125 -4.640625 C 9.679688 -4.640625 11.15625 -5 12.625 -5.71875 C 13.550781 -6.175781 14.085938 -6.847656 14.234375 -7.734375 Z M 14.234375 -7.734375 "/></g></g></g><g fill="#000000" fill-opacity="1"><g transform="translate(165.290364, 242.631986)"><g><path d="M 13.109375 -5.375 C 13.460938 -5.394531 13.84375 -5.335938 14.25 -5.203125 C 14.664062 -5.078125 14.992188 -4.757812 15.234375 -4.25 C 15.609375 -3.457031 15.441406 -2.679688 14.734375 -1.921875 C 14.296875 -1.441406 13.78125 -1.054688 13.1875 -0.765625 C 10.675781 0.453125 7.921875 0.765625 4.921875 0.171875 C 3.171875 -0.179688 2.03125 -1.320312 1.5 -3.25 C 1.164062 -4.46875 1.03125 -5.691406 1.09375 -6.921875 C 1.15625 -8.148438 1.265625 -9.304688 1.421875 -10.390625 C 1.554688 -11.296875 1.703125 -12.203125 1.859375 -13.109375 C 2.015625 -14.015625 2.171875 -14.910156 2.328125 -15.796875 C 2.410156 -16.222656 2.484375 -16.644531 2.546875 -17.0625 C 2.617188 -17.488281 2.695312 -17.921875 2.78125 -18.359375 L 2.796875 -18.484375 C 2.816406 -18.597656 2.835938 -18.71875 2.859375 -18.84375 C 2.878906 -18.96875 2.867188 -19.101562 2.828125 -19.25 C 2.617188 -20.332031 3.09375 -21.1875 4.25 -21.8125 C 4.46875 -21.925781 4.6875 -22.03125 4.90625 -22.125 C 5.132812 -22.226562 5.367188 -22.300781 5.609375 -22.34375 L 6.875 -22.515625 C 7.78125 -22.640625 8.695312 -22.765625 9.625 -22.890625 C 10.5625 -23.015625 11.492188 -23.097656 12.421875 -23.140625 C 12.503906 -23.140625 12.582031 -23.140625 12.65625 -23.140625 C 13.582031 -23.140625 14.332031 -22.875 14.90625 -22.34375 C 15.414062 -21.894531 15.679688 -21.332031 15.703125 -20.65625 C 15.722656 -19.914062 15.441406 -19.296875 14.859375 -18.796875 C 14.273438 -18.304688 13.515625 -18.03125 12.578125 -17.96875 C 11.960938 -17.9375 11.347656 -17.925781 10.734375 -17.9375 C 10.128906 -17.957031 9.519531 -17.988281 8.90625 -18.03125 L 8.140625 -18.0625 C 7.765625 -18.082031 7.46875 -18.085938 7.25 -18.078125 C 7.039062 -18.066406 6.867188 -17.992188 6.734375 -17.859375 C 6.585938 -17.742188 6.503906 -17.578125 6.484375 -17.359375 C 6.472656 -17.140625 6.46875 -16.84375 6.46875 -16.46875 C 6.46875 -16.09375 6.46875 -15.71875 6.46875 -15.34375 C 6.46875 -14.96875 6.46875 -14.597656 6.46875 -14.234375 L 6.46875 -12.75 L 6.84375 -12.8125 C 7.0625 -12.851562 7.273438 -12.890625 7.484375 -12.921875 C 7.691406 -12.960938 7.898438 -13.015625 8.109375 -13.078125 C 8.566406 -13.148438 9.015625 -13.222656 9.453125 -13.296875 C 9.898438 -13.378906 10.335938 -13.441406 10.765625 -13.484375 C 11.867188 -13.585938 12.894531 -13.53125 13.84375 -13.3125 C 14.6875 -13.132812 15.140625 -12.613281 15.203125 -11.75 C 15.242188 -11.257812 15.132812 -10.867188 14.875 -10.578125 C 14.625 -10.296875 14.359375 -10.085938 14.078125 -9.953125 C 13.390625 -9.597656 12.722656 -9.390625 12.078125 -9.328125 C 11.441406 -9.265625 10.796875 -9.21875 10.140625 -9.1875 C 9.484375 -9.164062 8.816406 -9.132812 8.140625 -9.09375 C 7.867188 -9.09375 7.585938 -9.082031 7.296875 -9.0625 C 7.015625 -9.039062 6.726562 -9.03125 6.4375 -9.03125 L 6.140625 -9 L 6.140625 -8.703125 C 6.140625 -8.566406 6.140625 -8.425781 6.140625 -8.28125 C 6.140625 -8.132812 6.140625 -7.988281 6.140625 -7.84375 C 6.140625 -7.4375 6.140625 -7.019531 6.140625 -6.59375 C 6.140625 -6.175781 6.148438 -5.757812 6.171875 -5.34375 C 6.171875 -5.207031 6.210938 -5.082031 6.296875 -4.96875 C 6.390625 -4.863281 6.460938 -4.78125 6.515625 -4.71875 C 6.597656 -4.664062 6.695312 -4.601562 6.8125 -4.53125 C 6.9375 -4.457031 7.066406 -4.421875 7.203125 -4.421875 C 8.304688 -4.503906 9.523438 -4.65625 10.859375 -4.875 C 11.035156 -4.894531 11.207031 -4.925781 11.375 -4.96875 C 11.539062 -5.019531 11.703125 -5.066406 11.859375 -5.109375 C 12.078125 -5.160156 12.289062 -5.210938 12.5 -5.265625 C 12.707031 -5.316406 12.910156 -5.351562 13.109375 -5.375 Z M 13.109375 -5.375 "/></g></g></g><g fill="#000000" fill-opacity="1"><g transform="translate(182.081419, 242.631986)"><g><path d="M 16.734375 -21.71875 C 17.367188 -21.539062 17.863281 -21.222656 18.21875 -20.765625 C 18.570312 -20.304688 18.71875 -19.789062 18.65625 -19.21875 C 18.59375 -18.625 18.347656 -18.125 17.921875 -17.71875 C 17.503906 -17.320312 16.972656 -17.101562 16.328125 -17.0625 C 16.003906 -17.039062 15.6875 -17.03125 15.375 -17.03125 C 15.0625 -17.03125 14.75 -17.03125 14.4375 -17.03125 C 14.28125 -17.03125 14.125 -17.03125 13.96875 -17.03125 C 13.820312 -17.03125 13.671875 -17.03125 13.515625 -17.03125 L 10.796875 -17.03125 L 10.859375 -16.671875 C 10.898438 -16.296875 10.945312 -15.929688 11 -15.578125 C 11.0625 -15.222656 11.113281 -14.867188 11.15625 -14.515625 C 11.269531 -13.734375 11.375 -12.960938 11.46875 -12.203125 C 11.570312 -11.441406 11.664062 -10.691406 11.75 -9.953125 C 11.84375 -9.117188 11.929688 -8.234375 12.015625 -7.296875 C 12.109375 -6.367188 12.175781 -5.410156 12.21875 -4.421875 C 12.238281 -3.710938 12.101562 -2.96875 11.8125 -2.1875 C 11.414062 -1.195312 10.675781 -0.691406 9.59375 -0.671875 C 8.488281 -0.691406 7.75 -1.1875 7.375 -2.15625 C 7.019531 -3.101562 6.84375 -4.035156 6.84375 -4.953125 C 6.84375 -6.253906 6.851562 -7.546875 6.875 -8.828125 C 6.894531 -10.117188 6.925781 -11.40625 6.96875 -12.6875 C 6.96875 -13.195312 6.972656 -13.707031 6.984375 -14.21875 C 6.992188 -14.738281 7.007812 -15.265625 7.03125 -15.796875 C 7.03125 -15.867188 7.019531 -16.003906 7 -16.203125 L 6.96875 -16.703125 L 5.984375 -16.796875 C 5.648438 -16.835938 5.316406 -16.867188 4.984375 -16.890625 C 4.648438 -16.921875 4.316406 -16.957031 3.984375 -17 C 3.804688 -17.019531 3.644531 -17.039062 3.5 -17.0625 C 3.351562 -17.082031 3.203125 -17.113281 3.046875 -17.15625 C 1.785156 -17.445312 1.132812 -18.09375 1.09375 -19.09375 C 1.050781 -20.132812 1.679688 -20.84375 2.984375 -21.21875 L 3.0625 -21.21875 C 3.125 -21.257812 3.164062 -21.28125 3.1875 -21.28125 C 3.8125 -21.320312 4.4375 -21.367188 5.0625 -21.421875 C 5.695312 -21.484375 6.320312 -21.554688 6.9375 -21.640625 C 7.9375 -21.734375 8.941406 -21.828125 9.953125 -21.921875 C 10.972656 -22.023438 11.984375 -22.078125 12.984375 -22.078125 C 13.492188 -22.078125 14 -22.0625 14.5 -22.03125 C 15.007812 -22 15.519531 -21.945312 16.03125 -21.875 C 16.28125 -21.832031 16.515625 -21.78125 16.734375 -21.71875 Z M 16.734375 -21.71875 "/></g></g></g><g fill="#000000" fill-opacity="1"><g transform="translate(201.85295, 242.631986)"><g><path d="M 22.578125 -4.84375 C 22.597656 -4.707031 22.628906 -4.578125 22.671875 -4.453125 C 22.648438 -3.722656 22.484375 -3.113281 22.171875 -2.625 C 21.867188 -2.132812 21.441406 -1.8125 20.890625 -1.65625 C 20.347656 -1.476562 19.816406 -1.492188 19.296875 -1.703125 C 18.785156 -1.921875 18.375 -2.285156 18.0625 -2.796875 C 17.726562 -3.367188 17.441406 -4.078125 17.203125 -4.921875 C 17.128906 -5.242188 16.992188 -5.53125 16.796875 -5.78125 C 16.597656 -6.039062 16.242188 -6.179688 15.734375 -6.203125 C 15.160156 -6.222656 14.585938 -6.238281 14.015625 -6.25 C 13.441406 -6.269531 12.875 -6.289062 12.3125 -6.3125 C 11.5625 -6.351562 10.800781 -6.390625 10.03125 -6.421875 C 9.269531 -6.453125 8.503906 -6.476562 7.734375 -6.5 C 7.535156 -6.5 7.316406 -6.410156 7.078125 -6.234375 C 6.847656 -6.066406 6.671875 -5.894531 6.546875 -5.71875 C 6.390625 -5.445312 6.238281 -5.164062 6.09375 -4.875 C 5.945312 -4.59375 5.804688 -4.316406 5.671875 -4.046875 C 5.523438 -3.765625 5.378906 -3.476562 5.234375 -3.1875 C 5.085938 -2.894531 4.925781 -2.609375 4.75 -2.328125 C 4.0625 -1.128906 3.226562 -0.75 2.25 -1.1875 C 1.851562 -1.34375 1.53125 -1.65625 1.28125 -2.125 C 1.039062 -2.59375 1.015625 -3.144531 1.203125 -3.78125 C 1.898438 -5.925781 2.785156 -8.351562 3.859375 -11.0625 C 4.554688 -12.800781 5.425781 -14.75 6.46875 -16.90625 C 6.757812 -17.519531 7.085938 -18.164062 7.453125 -18.84375 C 7.816406 -19.519531 8.210938 -20.1875 8.640625 -20.84375 C 9.097656 -21.488281 9.757812 -22.054688 10.625 -22.546875 C 11.269531 -22.941406 11.890625 -23.140625 12.484375 -23.140625 C 13.523438 -23.140625 14.390625 -22.5625 15.078125 -21.40625 C 16.441406 -19.082031 17.769531 -16.664062 19.0625 -14.15625 C 20.363281 -11.644531 21.414062 -9.003906 22.21875 -6.234375 C 22.300781 -5.972656 22.367188 -5.722656 22.421875 -5.484375 C 22.484375 -5.253906 22.535156 -5.039062 22.578125 -4.84375 Z M 9.46875 -11.484375 L 15 -11.484375 L 11.828125 -17.953125 Z M 9.46875 -11.484375 "/></g></g></g><g fill="#000000" fill-opacity="1"><g transform="translate(225.63098, 242.631986)"><g/></g></g></svg>