<?xml version="1.0" encoding="UTF-8"?>
<svg width="24" height="24" viewBox="0 0 24 24" fill="none" xmlns="http://www.w3.org/2000/svg">
  <path d="M0 0h1v1H0V0zm4 0h1v1H4V0zm4 0h1v1H8V0zm4 0h1v1h-1V0zm4 0h1v1h-1V0zm4 0h1v1h-1V0zM0 4h1v1H0V4zm4 0h1v1H4V4zm4 0h1v1H8V4zm4 0h1v1h-1V4zm4 0h1v1h-1V4zm4 0h1v1h-1V4zM0 8h1v1H0V8zm4 0h1v1H4V8zm4 0h1v1H8V8zm4 0h1v1h-1V8zm4 0h1v1h-1V8zm4 0h1v1h-1V8zM0 12h1v1H0v-1zm4 0h1v1H4v-1zm4 0h1v1H8v-1zm4 0h1v1h-1v-1zm4 0h1v1h-1v-1zm4 0h1v1h-1v-1zM0 16h1v1H0v-1zm4 0h1v1H4v-1zm4 0h1v1H8v-1zm4 0h1v1h-1v-1zm4 0h1v1h-1v-1zm4 0h1v1h-1v-1zM0 20h1v1H0v-1zm4 0h1v1H4v-1zm4 0h1v1H8v-1zm4 0h1v1h-1v-1zm4 0h1v1h-1v-1zm4 0h1v1h-1v-1z" fill="currentColor" fill-opacity="0.4"/>
</svg>
